<mxfile host="app.diagrams.net" agent="Mozilla/5.0 (Windows NT 10.0; Win64; x64) AppleWebKit/537.36 (KHTML, like Gecko) Chrome/132.0.0.0 Safari/537.36 Edg/132.0.0.0" version="26.0.6">
  <diagram name="第 1 页" id="P9xPnqMS_ykyOnKPPeVd">
    <mxGraphModel dx="1426" dy="915" grid="1" gridSize="10" guides="1" tooltips="1" connect="1" arrows="1" fold="1" page="1" pageScale="1" pageWidth="827" pageHeight="1169" math="0" shadow="0">
      <root>
        <mxCell id="0" />
        <mxCell id="1" parent="0" />
        <mxCell id="BNU_Gl1buFkA-kxmDUYF-1" style="edgeStyle=orthogonalEdgeStyle;rounded=0;orthogonalLoop=1;jettySize=auto;html=1;exitX=1;exitY=0.5;exitDx=0;exitDy=0;" parent="1" source="BNU_Gl1buFkA-kxmDUYF-2" edge="1">
          <mxGeometry relative="1" as="geometry">
            <mxPoint x="470" y="195.16666666666674" as="targetPoint" />
          </mxGeometry>
        </mxCell>
        <mxCell id="BNU_Gl1buFkA-kxmDUYF-2" value="生成房间" style="rounded=1;whiteSpace=wrap;html=1;" parent="1" vertex="1">
          <mxGeometry x="300" y="180" width="80" height="30" as="geometry" />
        </mxCell>
        <mxCell id="BNU_Gl1buFkA-kxmDUYF-3" value="" style="edgeStyle=orthogonalEdgeStyle;rounded=0;orthogonalLoop=1;jettySize=auto;html=1;" parent="1" source="BNU_Gl1buFkA-kxmDUYF-4" target="BNU_Gl1buFkA-kxmDUYF-6" edge="1">
          <mxGeometry relative="1" as="geometry" />
        </mxCell>
        <mxCell id="BNU_Gl1buFkA-kxmDUYF-4" value="生成房间" style="rounded=1;whiteSpace=wrap;html=1;" parent="1" vertex="1">
          <mxGeometry x="80" y="90" width="80" height="30" as="geometry" />
        </mxCell>
        <mxCell id="BNU_Gl1buFkA-kxmDUYF-5" value="" style="edgeStyle=orthogonalEdgeStyle;rounded=0;orthogonalLoop=1;jettySize=auto;html=1;" parent="1" source="BNU_Gl1buFkA-kxmDUYF-6" target="BNU_Gl1buFkA-kxmDUYF-8" edge="1">
          <mxGeometry relative="1" as="geometry" />
        </mxCell>
        <mxCell id="BNU_Gl1buFkA-kxmDUYF-6" value="选取4个方向door的位置" style="rounded=1;whiteSpace=wrap;html=1;" parent="1" vertex="1">
          <mxGeometry x="190" y="90" width="80" height="30" as="geometry" />
        </mxCell>
        <mxCell id="BNU_Gl1buFkA-kxmDUYF-7" style="edgeStyle=orthogonalEdgeStyle;rounded=0;orthogonalLoop=1;jettySize=auto;html=1;exitX=1;exitY=0.5;exitDx=0;exitDy=0;" parent="1" source="BNU_Gl1buFkA-kxmDUYF-8" edge="1">
          <mxGeometry relative="1" as="geometry">
            <mxPoint x="420" y="200" as="targetPoint" />
          </mxGeometry>
        </mxCell>
        <mxCell id="BNU_Gl1buFkA-kxmDUYF-8" value="选择合适的&lt;div&gt;位置插入&lt;/div&gt;" style="rounded=1;whiteSpace=wrap;html=1;" parent="1" vertex="1">
          <mxGeometry x="300" y="90" width="80" height="30" as="geometry" />
        </mxCell>
        <mxCell id="BNU_Gl1buFkA-kxmDUYF-9" value="" style="curved=1;endArrow=classic;html=1;rounded=0;exitX=0.5;exitY=0;exitDx=0;exitDy=0;entryX=0.5;entryY=0;entryDx=0;entryDy=0;" parent="1" source="BNU_Gl1buFkA-kxmDUYF-8" target="BNU_Gl1buFkA-kxmDUYF-4" edge="1">
          <mxGeometry width="50" height="50" relative="1" as="geometry">
            <mxPoint x="250" y="40" as="sourcePoint" />
            <mxPoint x="300" y="-10" as="targetPoint" />
            <Array as="points">
              <mxPoint x="270" y="50" />
              <mxPoint x="180" y="60" />
            </Array>
          </mxGeometry>
        </mxCell>
        <mxCell id="BNU_Gl1buFkA-kxmDUYF-10" value="更新地图，repeat" style="text;html=1;align=center;verticalAlign=middle;whiteSpace=wrap;rounded=0;" parent="1" vertex="1">
          <mxGeometry x="170" y="30" width="140" height="30" as="geometry" />
        </mxCell>
        <mxCell id="BNU_Gl1buFkA-kxmDUYF-11" value="Step1" style="text;html=1;align=center;verticalAlign=middle;whiteSpace=wrap;rounded=0;" parent="1" vertex="1">
          <mxGeometry x="240" y="180" width="60" height="30" as="geometry" />
        </mxCell>
        <mxCell id="BNU_Gl1buFkA-kxmDUYF-12" value="Step2" style="text;html=1;align=center;verticalAlign=middle;whiteSpace=wrap;rounded=0;" parent="1" vertex="1">
          <mxGeometry x="20" y="90" width="60" height="30" as="geometry" />
        </mxCell>
        <mxCell id="BNU_Gl1buFkA-kxmDUYF-13" value="" style="rounded=1;whiteSpace=wrap;html=1;fillColor=none;dashed=1;" parent="1" vertex="1">
          <mxGeometry x="70" y="30" width="370" height="110" as="geometry" />
        </mxCell>
        <mxCell id="BNU_Gl1buFkA-kxmDUYF-14" value="连接房间" style="text;html=1;align=center;verticalAlign=middle;whiteSpace=wrap;rounded=0;" parent="1" vertex="1">
          <mxGeometry x="370" y="30" width="60" height="30" as="geometry" />
        </mxCell>
        <mxCell id="BNU_Gl1buFkA-kxmDUYF-15" style="edgeStyle=orthogonalEdgeStyle;rounded=0;orthogonalLoop=1;jettySize=auto;html=1;exitX=1;exitY=0.5;exitDx=0;exitDy=0;" parent="1" source="BNU_Gl1buFkA-kxmDUYF-16" target="BNU_Gl1buFkA-kxmDUYF-32" edge="1">
          <mxGeometry relative="1" as="geometry" />
        </mxCell>
        <mxCell id="BNU_Gl1buFkA-kxmDUYF-16" value="包含房间的地图" style="ellipse;whiteSpace=wrap;html=1;" parent="1" vertex="1">
          <mxGeometry x="470" y="172.5" width="90" height="45" as="geometry" />
        </mxCell>
        <mxCell id="BNU_Gl1buFkA-kxmDUYF-17" value="" style="edgeStyle=orthogonalEdgeStyle;rounded=0;orthogonalLoop=1;jettySize=auto;html=1;" parent="1" source="BNU_Gl1buFkA-kxmDUYF-18" target="BNU_Gl1buFkA-kxmDUYF-22" edge="1">
          <mxGeometry relative="1" as="geometry" />
        </mxCell>
        <mxCell id="BNU_Gl1buFkA-kxmDUYF-18" value="生成Blob" style="rounded=1;whiteSpace=wrap;html=1;" parent="1" vertex="1">
          <mxGeometry x="60" y="350" width="80" height="30" as="geometry" />
        </mxCell>
        <mxCell id="BNU_Gl1buFkA-kxmDUYF-19" value="生成房间" style="rounded=1;whiteSpace=wrap;html=1;" parent="1" vertex="1">
          <mxGeometry x="300" y="180" width="80" height="30" as="geometry" />
        </mxCell>
        <mxCell id="BNU_Gl1buFkA-kxmDUYF-20" style="edgeStyle=orthogonalEdgeStyle;rounded=0;orthogonalLoop=1;jettySize=auto;html=1;exitX=0.5;exitY=0;exitDx=0;exitDy=0;" parent="1" source="BNU_Gl1buFkA-kxmDUYF-22" edge="1">
          <mxGeometry relative="1" as="geometry">
            <mxPoint x="160" y="360" as="targetPoint" />
          </mxGeometry>
        </mxCell>
        <mxCell id="BNU_Gl1buFkA-kxmDUYF-21" value="" style="edgeStyle=orthogonalEdgeStyle;rounded=0;orthogonalLoop=1;jettySize=auto;html=1;" parent="1" source="BNU_Gl1buFkA-kxmDUYF-22" target="BNU_Gl1buFkA-kxmDUYF-26" edge="1">
          <mxGeometry relative="1" as="geometry" />
        </mxCell>
        <mxCell id="BNU_Gl1buFkA-kxmDUYF-22" value="Blob破坏了LakeMap连通性？" style="rhombus;whiteSpace=wrap;html=1;" parent="1" vertex="1">
          <mxGeometry x="180" y="332.5" width="210" height="65" as="geometry" />
        </mxCell>
        <mxCell id="BNU_Gl1buFkA-kxmDUYF-23" value="是" style="text;html=1;align=center;verticalAlign=middle;resizable=0;points=[];autosize=1;strokeColor=none;fillColor=none;" parent="1" vertex="1">
          <mxGeometry x="200" y="288" width="40" height="30" as="geometry" />
        </mxCell>
        <mxCell id="BNU_Gl1buFkA-kxmDUYF-24" style="edgeStyle=orthogonalEdgeStyle;rounded=0;orthogonalLoop=1;jettySize=auto;html=1;exitX=0.5;exitY=0;exitDx=0;exitDy=0;entryX=0.5;entryY=0;entryDx=0;entryDy=0;" parent="1" source="BNU_Gl1buFkA-kxmDUYF-26" target="BNU_Gl1buFkA-kxmDUYF-18" edge="1">
          <mxGeometry relative="1" as="geometry">
            <Array as="points">
              <mxPoint x="470" y="280" />
              <mxPoint x="100" y="280" />
            </Array>
          </mxGeometry>
        </mxCell>
        <mxCell id="BNU_Gl1buFkA-kxmDUYF-25" value="" style="edgeStyle=orthogonalEdgeStyle;rounded=0;orthogonalLoop=1;jettySize=auto;html=1;" parent="1" source="BNU_Gl1buFkA-kxmDUYF-26" target="BNU_Gl1buFkA-kxmDUYF-30" edge="1">
          <mxGeometry relative="1" as="geometry" />
        </mxCell>
        <mxCell id="BNU_Gl1buFkA-kxmDUYF-26" value="加入LakeMap" style="rounded=1;whiteSpace=wrap;html=1;" parent="1" vertex="1">
          <mxGeometry x="430" y="350" width="80" height="30" as="geometry" />
        </mxCell>
        <mxCell id="BNU_Gl1buFkA-kxmDUYF-27" value="否" style="text;html=1;align=center;verticalAlign=middle;resizable=0;points=[];autosize=1;strokeColor=none;fillColor=none;" parent="1" vertex="1">
          <mxGeometry x="390" y="340" width="40" height="30" as="geometry" />
        </mxCell>
        <mxCell id="BNU_Gl1buFkA-kxmDUYF-28" value="repeat" style="text;html=1;align=center;verticalAlign=middle;resizable=0;points=[];autosize=1;strokeColor=none;fillColor=none;" parent="1" vertex="1">
          <mxGeometry x="250" y="250" width="60" height="30" as="geometry" />
        </mxCell>
        <mxCell id="BNU_Gl1buFkA-kxmDUYF-29" value="" style="edgeStyle=orthogonalEdgeStyle;rounded=0;orthogonalLoop=1;jettySize=auto;html=1;" parent="1" source="BNU_Gl1buFkA-kxmDUYF-30" target="BNU_Gl1buFkA-kxmDUYF-32" edge="1">
          <mxGeometry relative="1" as="geometry" />
        </mxCell>
        <mxCell id="BNU_Gl1buFkA-kxmDUYF-30" value="LakeMap" style="ellipse;whiteSpace=wrap;html=1;" parent="1" vertex="1">
          <mxGeometry x="540" y="342.5" width="90" height="45" as="geometry" />
        </mxCell>
        <mxCell id="BNU_Gl1buFkA-kxmDUYF-31" style="edgeStyle=orthogonalEdgeStyle;rounded=0;orthogonalLoop=1;jettySize=auto;html=1;exitX=0.5;exitY=1;exitDx=0;exitDy=0;" parent="1" source="BNU_Gl1buFkA-kxmDUYF-32" edge="1">
          <mxGeometry relative="1" as="geometry">
            <mxPoint x="735" y="570" as="targetPoint" />
          </mxGeometry>
        </mxCell>
        <mxCell id="BNU_Gl1buFkA-kxmDUYF-32" value="有水和房间的&lt;div&gt;地图&lt;/div&gt;" style="ellipse;whiteSpace=wrap;html=1;" parent="1" vertex="1">
          <mxGeometry x="690" y="342.5" width="90" height="45" as="geometry" />
        </mxCell>
        <mxCell id="BNU_Gl1buFkA-kxmDUYF-33" value="在房间周围包裹一层墙壁" style="text;html=1;align=center;verticalAlign=middle;resizable=0;points=[];autosize=1;strokeColor=none;fillColor=none;" parent="1" vertex="1">
          <mxGeometry x="570" y="168" width="160" height="30" as="geometry" />
        </mxCell>
        <mxCell id="BNU_Gl1buFkA-kxmDUYF-34" value="填充液体" style="text;html=1;align=center;verticalAlign=middle;resizable=0;points=[];autosize=1;strokeColor=none;fillColor=none;" parent="1" vertex="1">
          <mxGeometry x="620" y="332.5" width="70" height="30" as="geometry" />
        </mxCell>
        <mxCell id="BNU_Gl1buFkA-kxmDUYF-35" value="" style="edgeStyle=orthogonalEdgeStyle;rounded=0;orthogonalLoop=1;jettySize=auto;html=1;" parent="1" source="BNU_Gl1buFkA-kxmDUYF-36" target="BNU_Gl1buFkA-kxmDUYF-40" edge="1">
          <mxGeometry relative="1" as="geometry" />
        </mxCell>
        <mxCell id="BNU_Gl1buFkA-kxmDUYF-36" value="有水和房间的&lt;div&gt;地图&lt;/div&gt;" style="ellipse;whiteSpace=wrap;html=1;" parent="1" vertex="1">
          <mxGeometry x="225" y="600" width="90" height="45" as="geometry" />
        </mxCell>
        <mxCell id="BNU_Gl1buFkA-kxmDUYF-37" value="" style="edgeStyle=orthogonalEdgeStyle;rounded=0;orthogonalLoop=1;jettySize=auto;html=1;" parent="1" source="BNU_Gl1buFkA-kxmDUYF-38" target="BNU_Gl1buFkA-kxmDUYF-40" edge="1">
          <mxGeometry relative="1" as="geometry" />
        </mxCell>
        <mxCell id="BNU_Gl1buFkA-kxmDUYF-38" value="选中一种fg，计算fg应该生成的实例数量" style="rounded=1;whiteSpace=wrap;html=1;" parent="1" vertex="1">
          <mxGeometry x="50" y="513" width="120" height="60" as="geometry" />
        </mxCell>
        <mxCell id="BNU_Gl1buFkA-kxmDUYF-39" value="" style="edgeStyle=orthogonalEdgeStyle;rounded=0;orthogonalLoop=1;jettySize=auto;html=1;" parent="1" source="BNU_Gl1buFkA-kxmDUYF-40" target="BNU_Gl1buFkA-kxmDUYF-42" edge="1">
          <mxGeometry relative="1" as="geometry" />
        </mxCell>
        <mxCell id="BNU_Gl1buFkA-kxmDUYF-40" value="随机选取合适的位置&lt;div&gt;生成扩散&lt;/div&gt;" style="rounded=1;whiteSpace=wrap;html=1;" parent="1" vertex="1">
          <mxGeometry x="210" y="513" width="120" height="60" as="geometry" />
        </mxCell>
        <mxCell id="BNU_Gl1buFkA-kxmDUYF-41" style="edgeStyle=orthogonalEdgeStyle;rounded=0;orthogonalLoop=1;jettySize=auto;html=1;exitX=1;exitY=0.5;exitDx=0;exitDy=0;" parent="1" source="BNU_Gl1buFkA-kxmDUYF-42" edge="1">
          <mxGeometry relative="1" as="geometry">
            <mxPoint x="730" y="543" as="targetPoint" />
          </mxGeometry>
        </mxCell>
        <mxCell id="BNU_Gl1buFkA-kxmDUYF-42" value="根据扩散结果&lt;div&gt;放置fg&lt;/div&gt;&lt;div&gt;或override地形&lt;/div&gt;" style="rounded=1;whiteSpace=wrap;html=1;" parent="1" vertex="1">
          <mxGeometry x="370" y="513" width="120" height="60" as="geometry" />
        </mxCell>
        <mxCell id="BNU_Gl1buFkA-kxmDUYF-43" style="edgeStyle=orthogonalEdgeStyle;rounded=0;orthogonalLoop=1;jettySize=auto;html=1;exitX=0.5;exitY=0;exitDx=0;exitDy=0;entryX=0.408;entryY=0.017;entryDx=0;entryDy=0;entryPerimeter=0;" parent="1" source="BNU_Gl1buFkA-kxmDUYF-42" target="BNU_Gl1buFkA-kxmDUYF-40" edge="1">
          <mxGeometry relative="1" as="geometry">
            <Array as="points">
              <mxPoint x="430" y="480" />
              <mxPoint x="259" y="480" />
            </Array>
          </mxGeometry>
        </mxCell>
        <mxCell id="BNU_Gl1buFkA-kxmDUYF-44" value="repeat 实例数量 次" style="text;html=1;align=center;verticalAlign=middle;resizable=0;points=[];autosize=1;strokeColor=none;fillColor=none;" parent="1" vertex="1">
          <mxGeometry x="280" y="458" width="120" height="30" as="geometry" />
        </mxCell>
        <mxCell id="BNU_Gl1buFkA-kxmDUYF-45" value="" style="edgeStyle=orthogonalEdgeStyle;rounded=0;orthogonalLoop=1;jettySize=auto;html=1;" parent="1" source="BNU_Gl1buFkA-kxmDUYF-46" target="BNU_Gl1buFkA-kxmDUYF-47" edge="1">
          <mxGeometry relative="1" as="geometry" />
        </mxCell>
        <mxCell id="BNU_Gl1buFkA-kxmDUYF-46" value="更新fg造成的效果" style="rounded=1;whiteSpace=wrap;html=1;" parent="1" vertex="1">
          <mxGeometry x="680" y="570" width="115" height="30" as="geometry" />
        </mxCell>
        <mxCell id="BNU_Gl1buFkA-kxmDUYF-47" value="还不存在怪物&lt;div&gt;的地图&lt;/div&gt;" style="ellipse;whiteSpace=wrap;html=1;" parent="1" vertex="1">
          <mxGeometry x="692.5" y="630" width="90" height="45" as="geometry" />
        </mxCell>
        <mxCell id="ct2iqwvamAYIEJnABlpl-1" value="" style="rhombus;whiteSpace=wrap;html=1;" vertex="1" parent="1">
          <mxGeometry x="110" y="820" width="80" height="80" as="geometry" />
        </mxCell>
      </root>
    </mxGraphModel>
  </diagram>
</mxfile>
